<?xml version="1.0" encoding="UTF-8" standalone="no"?>
<svg
   xmlns:dc="http://purl.org/dc/elements/1.1/"
   xmlns:cc="http://creativecommons.org/ns#"
   xmlns:rdf="http://www.w3.org/1999/02/22-rdf-syntax-ns#"
   xmlns:svg="http://www.w3.org/2000/svg"
   xmlns="http://www.w3.org/2000/svg"
   xmlns:sodipodi="http://sodipodi.sourceforge.net/DTD/sodipodi-0.dtd"
   xmlns:inkscape="http://www.inkscape.org/namespaces/inkscape"
   height="297mm"
   version="1.1"
   viewBox="0 0 744.09449 1052.3622"
   width="210mm"
   id="svg2"
   inkscape:version="0.91 r13725"
   sodipodi:docname="order_aval.svg"
   inkscape:export-filename="/home/mai/IHC/projeto-smartdemand/SMARTS/pics/aval24.png"
   inkscape:export-xdpi="77.139999"
   inkscape:export-ydpi="77.139999">
  <metadata
     id="metadata15">
    <rdf:RDF>
      <cc:Work
         rdf:about="">
        <dc:format>image/svg+xml</dc:format>
        <dc:type
           rdf:resource="http://purl.org/dc/dcmitype/StillImage" />
        <dc:title />
      </cc:Work>
    </rdf:RDF>
  </metadata>
  <sodipodi:namedview
     pagecolor="#ffffff"
     bordercolor="#666666"
     borderopacity="1"
     objecttolerance="10"
     gridtolerance="10"
     guidetolerance="10"
     inkscape:pageopacity="0"
     inkscape:pageshadow="2"
     inkscape:window-width="1280"
     inkscape:window-height="966"
     id="namedview13"
     showgrid="false"
     inkscape:zoom="0.91526268"
     inkscape:cx="189.03221"
     inkscape:cy="619.98189"
     inkscape:window-x="0"
     inkscape:window-y="0"
     inkscape:window-maximized="1"
     inkscape:current-layer="svg2"
     units="mm" />
  <desc
     id="desc6" />
  <defs
     id="defs8" />
  <rect
     style="fill:none;fill-opacity:1;stroke:#000000;stroke-width:4;stroke-linecap:round;stroke-linejoin:round;stroke-miterlimit:4;stroke-dasharray:none;stroke-dashoffset:0;stroke-opacity:0"
     id="rect4139"
     width="38.508476"
     height="37.423729"
     x="-1.3884994"
     y="1018.6681" />
  <path
     style="fill:#ffffff;fill-opacity:1;stroke:#000000;stroke-width:1.48371208;stroke-linecap:round;stroke-linejoin:round;stroke-miterlimit:4;stroke-dasharray:none;stroke-dashoffset:0;stroke-opacity:0"
     d="m -232.13054,1036.737 0,-99.18 86.70325,0 86.703255,0 0,99.18 0,99.1799 -86.703255,0 -86.70325,0 0,-99.1799 z m 101.2694,41.4572 0,-24.795 21.67958,0 21.679574,0 -0.09047,-16.7614 -0.09046,-16.7614 -21.589114,-0.1022 -21.58911,-0.1022 0,-24.792 0,-24.792 -14.56615,0 -14.56614,0 0,24.795 0,24.795 -21.67582,0 -21.67581,0 0,16.8606 0,16.8606 21.67581,0 21.67582,0 0,24.795 0,24.795 14.56614,0 14.56615,0 0,-24.795 z"
     id="path4134"
     inkscape:connector-curvature="0"
     inkscape:export-xdpi="23.280001"
     inkscape:export-ydpi="23.280001" />
  <g
     style="fill:#000000;fill-rule:evenodd;stroke:none;stroke-width:1"
     id="icon-6-thumb-up"
     transform="matrix(6.4976143,0,0,6.4976143,350.28076,90.601351)">
    <path
       inkscape:connector-curvature="0"
       id="thumb-up"
       d="m 19.248813,30 4.25356,0 C 24.881774,30 26,28.890338 26,27.5 26,26.937194 25.81263,26.417824 25.497858,25.999992 26.880332,25.996652 28,24.888241 28,23.5 28,22.864214 27.763488,22.28386 27.37227,21.842699 l 0,0 C 28.323192,21.489504 29,20.579327 29,19.5 29,18.864214 28.763488,18.28386 28.37227,17.842699 29.323192,17.489504 30,16.579327 30,15.5 30,14.119288 28.884582,13 27.491591,13 l -5.991836,0 C 22.549072,7.9831543 22.046387,1.9999993 18,2 c -4.046387,7e-7 -1.933641,4.7876471 -3.5,7.7626953 C 12.9337,12.73763 10.000223,12.99998 10,13 L 3.9950893,13 C 2.8932319,13 2,13.893397 2,14.991884 L 2,26.008116 C 2,27.108203 2.8867063,28 3.9981014,28 L 10,28 l 6,2 3.248813,0 0,0 z M 10.5,14 c 10e-7,0 3.304735,-0.723683 4.871094,-3.69873 C 16.937453,7.3262213 15.12915,3.0000004 18,3 c 3.151489,-4e-7 3.500732,5.5 2.299988,11 l 0,0 7.206916,0 C 28.336114,14 29,14.671573 29,15.5 29,16.334203 28.331518,17 27.506904,17 L 24,17 l 0,1 2.506904,0 C 27.336114,18 28,18.671573 28,19.5 28,20.334203 27.331518,21 26.506904,21 L 23,21 l 0,0 0,1 2.506904,0 C 26.336114,22 27,22.671573 27,23.5 27,24.334203 26.331518,25 25.506904,25 L 22,25 l 0,0 0,1 1.498324,0 C 24.328811,26 25,26.671573 25,27.5 25,28.334203 24.327677,29 23.498324,29 L 19.750838,29 16,29 10,27 4.0029293,27 C 3.4378814,27 3,26.552955 3,26.001498 L 3,14.998502 C 3,14.447489 3.4476974,14 3.9999602,14 L 10.5,14 l 0,0 0,0 z" />
  </g>
  <rect
     style="fill:none;fill-opacity:1;stroke:#006df0;stroke-width:6.06127024;stroke-linecap:round;stroke-linejoin:round;stroke-miterlimit:4;stroke-dasharray:none;stroke-dashoffset:0;stroke-opacity:1"
     id="rect4243"
     width="237.99823"
     height="218.09645"
     x="335.24353"
     y="85.514801" />
</svg>
