<?xml version="1.0" encoding="UTF-8" standalone="no"?>
<!-- Generator: Adobe Illustrator 16.0.0, SVG Export Plug-In . SVG Version: 6.00 Build 0)  -->

<svg
   xmlns:dc="http://purl.org/dc/elements/1.1/"
   xmlns:cc="http://creativecommons.org/ns#"
   xmlns:rdf="http://www.w3.org/1999/02/22-rdf-syntax-ns#"
   xmlns:svg="http://www.w3.org/2000/svg"
   xmlns="http://www.w3.org/2000/svg"
   xmlns:sodipodi="http://sodipodi.sourceforge.net/DTD/sodipodi-0.dtd"
   xmlns:inkscape="http://www.inkscape.org/namespaces/inkscape"
   version="1.1"
   id="Capa_1"
   x="0px"
   y="0px"
   width="407.504px"
   height="407.504px"
   viewBox="0 0 407.504 407.504"
   style="enable-background:new 0 0 407.504 407.504;"
   xml:space="preserve"
   inkscape:version="0.91 r13725"
   sodipodi:docname="service_dentista_pin.svg"><metadata
     id="metadata41"><rdf:RDF><cc:Work
         rdf:about=""><dc:format>image/svg+xml</dc:format><dc:type
           rdf:resource="http://purl.org/dc/dcmitype/StillImage" /><dc:title></dc:title></cc:Work></rdf:RDF></metadata><defs
     id="defs39" /><sodipodi:namedview
     pagecolor="#ffffff"
     bordercolor="#666666"
     borderopacity="1"
     objecttolerance="10"
     gridtolerance="10"
     guidetolerance="10"
     inkscape:pageopacity="0"
     inkscape:pageshadow="2"
     inkscape:window-width="1280"
     inkscape:window-height="966"
     id="namedview37"
     showgrid="false"
     inkscape:zoom="0.7424556"
     inkscape:cx="208.23771"
     inkscape:cy="281.04607"
     inkscape:window-x="0"
     inkscape:window-y="0"
     inkscape:window-maximized="1"
     inkscape:current-layer="Capa_1" /><g
     id="g4170"><g
       id="g7" /><g
       id="g9" /><g
       id="g11" /><g
       id="g13" /><g
       id="g15" /><g
       id="g17" /><g
       id="g19" /><g
       id="g21" /><g
       id="g23" /><g
       id="g25" /><g
       id="g27" /><g
       id="g29" /><g
       id="g31" /><g
       id="g33" /><g
       id="g35" /><g
       transform="matrix(0.47457627,0,0,0.47457627,114.09115,108.77586)"
       style="fill:#006df0;fill-opacity:1;stroke:#006df0;stroke-opacity:1"
       id="g3"><path
         inkscape:connector-curvature="0"
         style="fill:#006df0;fill-opacity:1;stroke:#006df0;stroke-opacity:1"
         id="path5"
         d="M 376.328,45.601 C 355.197,21.943 326.115,8.915 294.437,8.915 269.671,8.915 242.96,23.65 223.443,34.416 216.338,38.338 206.622,43.7 203.75,44.053 200.891,43.706 191.225,38.358 184.137,34.437 164.67,23.666 138.009,8.915 113.068,8.915 81.389,8.915 52.306,21.943 31.174,45.601 11.071,68.108 0,97.734 0,129.021 c 0,44.695 16.05,108.255 42.933,170.029 11.96,27.484 24.691,51.233 36.816,68.68 14.432,20.766 26.817,30.859 37.864,30.859 4.902,0 13.878,-2.079 18.914,-16.007 4.894,-13.534 9.296,-29.069 13.964,-45.547 12.354,-43.606 27.728,-97.878 52.48,-97.878 l 1.563,0 c 11.005,0 20.856,9.426 30.115,28.818 9.172,19.209 16.145,44.752 22.898,69.485 4.463,16.351 8.68,31.792 13.416,45.085 4.934,13.842 13.809,15.912 18.666,15.915 10.992,-10e-4 23.365,-10.249 37.828,-31.329 12.094,-17.626 24.852,-41.611 36.895,-69.361 27.02,-62.271 43.152,-125.354 43.152,-168.75 0,-31.287 -11.072,-60.913 -31.176,-83.419 m -89.531,32.084 c -0.254,-0.017 -25.844,-1.242 -49.139,-7.411 -10.504,-2.781 -22.924,-8.369 -22.924,-10.027 0,-1.614 13.494,-9.471 16.748,-11.267 17.924,-9.888 42.469,-23.43 62.955,-23.43 60.361,0 96.432,52.609 96.432,103.471 0,40.62 -16.008,102.744 -41.779,162.126 -11.457,26.404 -24.012,50.047 -35.35,66.572 -13.082,19.067 -21.547,24.61 -24.111,24.105 -1.574,-0.311 -1.77,-1.427 -2.994,-4.865 -4.531,-12.712 -8.668,-27.863 -13.047,-43.904 -6.938,-25.41 -14.109,-51.687 -23.928,-72.25 -12.301,-25.762 -27.062,-38.285 -45.126,-38.285 l -1.563,0 c -17.401,0 -31.821,12.423 -44.081,37.978 -9.786,20.397 -17.218,46.631 -24.404,72.002 -4.58,16.165 -8.905,31.436 -13.602,44.424 -1.037,2.867 -1.357,4.739 -3.271,5.029 -1.5,0.228 -7.907,-0.269 -24.204,-23.718 C 82.063,341.91 69.554,318.533 58.186,292.411 32.556,233.517 16.635,170.91 16.635,129.02 c 0,-50.862 36.071,-103.471 96.433,-103.471 15.69,0 36.309,7.149 55.155,19.124 2.764,1.757 6.656,4.748 10.42,7.642 1.502,1.155 2.982,2.292 4.36,3.329 4.418,3.309 10.388,7.636 17.398,11.763 2.989,1.764 6.708,3.96 10.658,5.636 15.105,6.412 31.121,9.663 47.602,9.663 16.793,0 28.088,-2.987 28.199,-3.022 0,0 2.527,-0.668 2.447,-1.325 -0.08,-0.657 -2.51,-0.674 -2.51,-0.674 z" /></g><path
       inkscape:connector-curvature="0"
       id="path4242"
       d="m 164.95968,285.84839 c -12.22494,-12.68317 -29.40702,-49.92494 -37.09569,-80.40409 -4.67484,-18.53181 -6.21814,-35.3293 -4.1732,-45.42153 3.1017,-15.30751 12.00231,-27.73123 24.12303,-33.67161 8.02632,-3.93371 12.87206,-4.98548 21.04098,-4.56698 10.34303,0.52988 18.94756,4.14762 30.98255,13.02647 12.36776,9.12436 21.21823,12.67259 33.68624,13.50512 8.50857,0.56815 20.11633,-1.18539 18.40451,-2.78029 -0.12969,-0.12083 -3.38093,-0.55818 -7.22498,-0.97189 -9.71423,-1.04547 -19.00853,-3.08667 -23.75622,-5.2173 -3.86229,-1.7333 -3.96968,-1.8484 -2.7981,-2.99901 2.4017,-2.35872 18.55523,-10.59022 24.97626,-12.72739 6.15967,-2.05016 6.96518,-2.15858 13.61805,-1.83295 16.3136,0.79848 29.09072,9.51457 36.74775,25.068 4.45261,9.04442 5.31832,13.07014 5.28592,24.58059 -0.029,10.30888 -1.28878,18.98742 -4.74112,32.66189 -6.17542,24.46036 -19.42558,55.98986 -30.47155,72.50876 -4.26705,6.38124 -9.93659,12.68152 -11.41194,12.68152 -1.01946,0 -2.11362,-3.21971 -7.19193,-21.16315 -9.16312,-32.37656 -13.50455,-42.32341 -21.572,-49.42466 -7.28627,-6.41363 -17.56198,-6.44002 -24.80587,-0.0637 -7.41305,6.52522 -12.91413,19.04245 -21.28315,48.42794 -4.69981,16.50211 -6.74552,22.22355 -7.94605,22.22355 -0.59314,0 -2.5702,-1.54769 -4.39349,-3.43931 l 0,2e-5 z"
       style="fill:#ffffff;fill-opacity:1;stroke:#006df0;stroke-width:2.0203228;stroke-linecap:round;stroke-linejoin:round;stroke-miterlimit:4;stroke-dasharray:none;stroke-dashoffset:0;stroke-opacity:1" /><path
       inkscape:connector-curvature="0"
       id="path4220"
       d="m 163.54848,281.47146 c -6.33141,-7.33341 -22.04096,-39.17894 -28.19501,-57.15535 -10.39099,-30.35279 -13.17857,-57.3515 -7.49099,-72.55291 3.72928,-9.9674 13.92674,-21.01077 23.11153,-25.02871 14.6473,-6.40753 28.91097,-3.59953 48.17812,9.48454 14.09543,9.57203 22.09316,12.58295 35.01893,13.18367 11.13796,0.51763 18.85634,-0.98097 18.85634,-3.66113 0,-0.72555 -2.27286,-1.69134 -5.0508,-2.14619 -13.29053,-2.17613 -25.29442,-4.85766 -26.31527,-5.87851 -1.29073,-1.29073 3.92445,-4.53483 16.55037,-10.29518 21.2588,-9.69894 43.25676,-0.9912 54.54872,21.59272 3.82844,7.6569 4.03223,8.89471 3.88034,23.57043 -0.13051,12.60559 -0.93359,18.45691 -4.31405,31.43064 -7.57562,29.07421 -23.91168,65.17177 -35.33234,78.07338 l -4.78777,5.4086 -5.76508,-20.08034 c -3.17079,-11.04419 -7.59869,-24.83672 -9.83979,-30.65008 -8.94546,-23.20439 -26.18874,-31.06751 -39.81534,-18.15623 -6.37512,6.04047 -12.28285,19.19216 -19.8614,44.21512 -3.47753,11.48216 -6.77345,21.69094 -7.32425,22.68618 -0.73014,1.31927 -2.36981,0.22459 -6.05226,-4.04065 z"
       style="fill:#ffffff;fill-opacity:1;stroke:#000000;stroke-width:5.38752747;stroke-linecap:round;stroke-linejoin:round;stroke-miterlimit:4;stroke-dasharray:none;stroke-dashoffset:0;stroke-opacity:0" /><ellipse
       ry="130.5945"
       rx="174.36815"
       cy="205.47173"
       cx="210.78702"
       id="path4168"
       style="fill:none;fill-opacity:1;stroke:#006df0;stroke-width:3;stroke-linecap:round;stroke-linejoin:round;stroke-miterlimit:4;stroke-dasharray:none;stroke-dashoffset:0;stroke-opacity:1" /></g></svg>