<?xml version="1.0" encoding="UTF-8" standalone="no"?>
<!-- Created with Inkscape (http://www.inkscape.org/) -->

<svg
   xmlns:dc="http://purl.org/dc/elements/1.1/"
   xmlns:cc="http://creativecommons.org/ns#"
   xmlns:rdf="http://www.w3.org/1999/02/22-rdf-syntax-ns#"
   xmlns:svg="http://www.w3.org/2000/svg"
   xmlns="http://www.w3.org/2000/svg"
   xmlns:sodipodi="http://sodipodi.sourceforge.net/DTD/sodipodi-0.dtd"
   xmlns:inkscape="http://www.inkscape.org/namespaces/inkscape"
   width="210mm"
   height="297mm"
   viewBox="0 0 744.09448819 1052.3622047"
   id="svg4386"
   version="1.1"
   inkscape:version="0.91 r13725"
   sodipodi:docname="service_maternidade_pin.svg"
   inkscape:export-filename="/home/mai/usp/materias/interacao_humano-computador_MAC5786-2016_1/projeto-smartdemand/SMARTS/pics/maternidade2.png"
   inkscape:export-xdpi="7.5"
   inkscape:export-ydpi="7.5">
  <defs
     id="defs4388" />
  <sodipodi:namedview
     id="base"
     pagecolor="#ffffff"
     bordercolor="#666666"
     borderopacity="1.0"
     inkscape:pageopacity="0.0"
     inkscape:pageshadow="2"
     inkscape:zoom="0.40169601"
     inkscape:cx="479.69218"
     inkscape:cy="869.42766"
     inkscape:document-units="px"
     inkscape:current-layer="layer1"
     showgrid="false"
     inkscape:window-width="1280"
     inkscape:window-height="966"
     inkscape:window-x="0"
     inkscape:window-y="0"
     inkscape:window-maximized="1"
     showguides="false" />
  <metadata
     id="metadata4391">
    <rdf:RDF>
      <cc:Work
         rdf:about="">
        <dc:format>image/svg+xml</dc:format>
        <dc:type
           rdf:resource="http://purl.org/dc/dcmitype/StillImage" />
        <dc:title></dc:title>
      </cc:Work>
    </rdf:RDF>
  </metadata>
  <g
     inkscape:label="Camada 1"
     inkscape:groupmode="layer"
     id="layer1">
    <g
       id="g4225"
       inkscape:export-filename="/home/mai/IHC/projeto-smartdemand/SMARTS/SMARTS/app/src/main/res/drawable/maternidade_pin.png"
       inkscape:export-xdpi="6.4000001"
       inkscape:export-ydpi="6.4000001">
      <g
         style="fill:#006df0;fill-opacity:1;stroke:#006df0;stroke-width:0.7068575;stroke-miterlimit:4;stroke-dasharray:none;stroke-opacity:1"
         transform="matrix(2.8294247,0,0,2.8294247,396.2221,178.36203)"
         id="g4282">
        <g
           style="fill:#006df0;fill-opacity:1;stroke:#006df0;stroke-width:0.7068575;stroke-miterlimit:4;stroke-dasharray:none;stroke-opacity:1"
           id="g4240">
          <path
             style="fill:#006df0;fill-opacity:1;stroke:#006df0;stroke-width:0.7068575;stroke-miterlimit:4;stroke-dasharray:none;stroke-opacity:1"
             inkscape:connector-curvature="0"
             d="M 46.605,4.22 C 46.379,3.949 46.139,3.686 45.886,3.433 45.632,3.179 45.369,2.939 45.098,2.713 42.402,0.463 38.881,-0.235 35.442,0.798 31.843,1.879 29.054,4.658 27.98,8.234 27.559,9.634 27.095,10.893 26.602,12.029 20.014,6.529 11.694,1.608 8.507,4.796 6.819,6.484 7.268,9.824 9.808,14.454 c 0.265,0.483 0.554,0.976 0.857,1.475 -2.138,0.85 -4.058,2.081 -5.694,3.716 -6.628,6.628 -6.628,17.413 0,24.042 3.314,3.314 7.667,4.971 12.021,4.971 4.354,0 8.707,-1.657 12.021,-4.971 1.636,-1.636 2.866,-3.556 3.716,-5.694 0.498,0.303 0.992,0.592 1.475,0.857 2.794,1.532 5.118,2.304 6.893,2.304 1.167,0 2.096,-0.333 2.766,-1.003 3.071,-3.071 -1.284,-10.813 -6.653,-17.398 1.155,-0.506 2.441,-0.982 3.876,-1.414 3.575,-1.074 6.355,-3.864 7.436,-7.462 1.031,-3.442 0.334,-6.961 -1.917,-9.657 z M 22.089,29.648 c 0.063,0.06 0.125,0.122 0.188,0.181 0.075,0.07 0.15,0.136 0.224,0.206 0.021,0.02 0.042,0.038 0.063,0.058 0.38,0.355 0.76,0.704 1.142,1.047 0.116,0.105 0.232,0.214 0.348,0.317 0.009,0.008 0.019,0.016 0.028,0.024 0.041,0.036 0.082,0.07 0.123,0.106 0.453,0.401 0.906,0.792 1.36,1.174 0.078,0.066 0.157,0.136 0.235,0.201 0.5,0.418 0.999,0.82 1.497,1.213 0.112,0.089 0.224,0.178 0.336,0.266 -0.491,1.892 -1.474,3.611 -2.864,5.002 -4.289,4.288 -11.267,4.289 -15.557,0 -4.289,-4.289 -4.289,-11.268 0,-15.557 1.39,-1.39 3.109,-2.372 5.002,-2.864 0.087,0.112 0.177,0.224 0.266,0.336 0.393,0.498 0.796,0.997 1.213,1.497 0.066,0.078 0.135,0.157 0.201,0.235 0.382,0.453 0.774,0.907 1.174,1.36 0.036,0.041 0.07,0.082 0.106,0.123 0.008,0.009 0.016,0.019 0.024,0.028 0.103,0.116 0.213,0.232 0.317,0.348 0.343,0.381 0.692,0.762 1.047,1.142 0.02,0.021 0.038,0.042 0.058,0.063 0.07,0.075 0.136,0.15 0.206,0.224 0.059,0.063 0.122,0.125 0.181,0.188 0.497,0.523 1.001,1.044 1.518,1.562 0.517,0.518 1.041,1.023 1.564,1.52 z m 5.51,12.624 c -5.848,5.849 -15.364,5.85 -21.213,0 -5.849,-5.849 -5.849,-15.365 0,-21.213 1.532,-1.531 3.333,-2.685 5.363,-3.434 0.131,0.195 0.273,0.394 0.409,0.591 0.211,0.306 0.424,0.613 0.646,0.921 0.045,0.063 0.086,0.124 0.131,0.187 -1.929,0.632 -3.685,1.699 -5.135,3.149 -5.068,5.068 -5.068,13.316 0,18.385 2.535,2.534 5.864,3.801 9.192,3.801 3.329,0 6.658,-1.267 9.192,-3.801 1.45,-1.45 2.517,-3.206 3.149,-5.135 0.063,0.046 0.125,0.086 0.187,0.131 0.309,0.222 0.615,0.435 0.921,0.646 0.197,0.136 0.396,0.278 0.591,0.409 -0.749,2.03 -1.902,3.831 -3.433,5.363 z m 14.849,-3.536 c -0.735,0.734 -3.032,0.69 -7.283,-1.64 -0.877,-0.481 -1.789,-1.043 -2.717,-1.654 -0.264,-0.174 -0.529,-0.35 -0.795,-0.533 -0.219,-0.15 -0.44,-0.307 -0.661,-0.464 C 30.717,34.25 30.442,34.056 30.164,33.852 29.889,33.649 29.612,33.435 29.335,33.223 29.294,33.191 29.252,33.16 29.211,33.128 28.72,32.75 28.228,32.359 27.737,31.959 27.616,31.86 27.495,31.764 27.373,31.663 26.905,31.276 26.438,30.876 25.971,30.47 25.86,30.373 25.748,30.279 25.637,30.181 25.551,30.105 25.464,30.027 25.378,29.95 24.975,29.592 24.573,29.225 24.172,28.853 24.11,28.795 24.048,28.74 23.985,28.682 c -0.13,-0.121 -0.26,-0.241 -0.39,-0.364 -0.554,-0.524 -1.106,-1.056 -1.655,-1.604 -0.548,-0.548 -1.08,-1.101 -1.604,-1.655 -0.123,-0.13 -0.243,-0.26 -0.364,-0.39 C 19.914,24.607 19.858,24.545 19.801,24.482 19.429,24.081 19.062,23.679 18.704,23.276 18.627,23.19 18.549,23.103 18.473,23.017 18.375,22.905 18.281,22.794 18.184,22.683 17.778,22.216 17.377,21.749 16.991,21.281 16.89,21.159 16.795,21.038 16.695,20.917 16.295,20.426 15.904,19.935 15.526,19.443 15.494,19.402 15.463,19.36 15.431,19.319 15.219,19.042 15.005,18.765 14.802,18.49 14.598,18.213 14.404,17.938 14.209,17.662 14.052,17.441 13.895,17.22 13.745,17.001 13.562,16.735 13.386,16.47 13.212,16.206 12.601,15.278 12.04,14.366 11.558,13.489 9.228,9.24 9.183,6.941 9.918,6.206 10.214,5.91 10.684,5.761 11.306,5.761 c 2.625,0 7.962,2.656 14.391,8.113 -0.1,0.183 -0.198,0.381 -0.3,0.554 -0.009,0.015 -0.018,0.031 -0.027,0.046 -0.234,0.393 -0.473,0.757 -0.716,1.093 -0.008,0.011 -0.016,0.022 -0.024,0.033 -0.243,0.333 -0.489,0.635 -0.739,0.908 -0.011,0.012 -0.021,0.023 -0.032,0.034 -0.247,0.267 -0.498,0.504 -0.752,0.711 -0.016,0.013 -0.033,0.025 -0.049,0.038 -0.254,0.203 -0.511,0.378 -0.77,0.518 l -1.256,0.677 1.064,0.95 c 1.145,1.022 2.265,2.079 3.327,3.141 1.511,1.511 2.981,3.107 4.368,4.743 l 0.975,1.15 0,0 0.001,0.001 0.68,-1.346 c 0.134,-0.264 0.305,-0.526 0.504,-0.786 0.012,-0.015 0.022,-0.031 0.034,-0.047 0.202,-0.258 0.437,-0.513 0.702,-0.765 0.012,-0.011 0.024,-0.023 0.036,-0.035 0.27,-0.254 0.571,-0.504 0.902,-0.75 0.012,-0.009 0.025,-0.018 0.038,-0.028 0.334,-0.246 0.698,-0.489 1.092,-0.726 0.016,-0.01 0.034,-0.019 0.05,-0.029 0.174,-0.104 0.375,-0.204 0.56,-0.306 6.292,7.612 8.556,13.61 7.083,15.083 z m 4.157,-25.435 c -0.887,2.953 -3.166,5.242 -6.096,6.123 -1.466,0.441 -3.08,1.019 -4.628,1.736 l -0.017,-0.02 -0.703,0.352 c -0.042,0.021 -0.076,0.043 -0.117,0.064 -0.228,0.116 -0.445,0.244 -0.668,0.367 -1.121,0.62 -2.078,1.277 -2.849,1.973 -0.054,0.048 -0.116,0.092 -0.168,0.141 -0.34,0.32 -0.647,0.646 -0.913,0.98 -0.464,-0.529 -0.941,-1.049 -1.42,-1.567 -0.718,-0.777 -1.445,-1.543 -2.186,-2.285 -0.794,-0.794 -1.619,-1.585 -2.462,-2.36 0.329,-0.268 0.651,-0.577 0.965,-0.917 0.057,-0.062 0.109,-0.136 0.165,-0.2 0.659,-0.747 1.283,-1.66 1.873,-2.724 0.141,-0.254 0.285,-0.504 0.417,-0.765 0.02,-0.039 0.041,-0.071 0.06,-0.11 l 0.344,-0.693 -0.018,-0.016 c 0.706,-1.533 1.276,-3.128 1.71,-4.572 0.881,-2.93 3.169,-5.208 6.123,-6.095 2.787,-0.836 5.628,-0.277 7.799,1.534 0.225,0.188 0.443,0.387 0.656,0.6 0.211,0.21 0.411,0.429 0.598,0.653 l 0,0 c 1.811,2.172 2.371,5.015 1.535,7.801 z"
             id="path4242" />
          <path
             style="fill:#006df0;fill-opacity:1;stroke:#006df0;stroke-width:0.7068575;stroke-miterlimit:4;stroke-dasharray:none;stroke-opacity:1"
             inkscape:connector-curvature="0"
             d="m 37.981,5.026 c -1.737,0 -3.424,0.831 -4.751,2.339 -0.365,0.415 -0.324,1.047 0.09,1.412 0.417,0.365 1.047,0.324 1.412,-0.09 1.91,-2.173 4.588,-2.173 6.498,0 0.198,0.225 0.474,0.339 0.751,0.339 0.234,0 0.47,-0.082 0.66,-0.249 0.415,-0.365 0.455,-0.997 0.09,-1.412 -1.326,-1.508 -3.013,-2.339 -4.75,-2.339 z"
             id="path4244" />
        </g>
        <g
           style="fill:#006df0;fill-opacity:1;stroke:#006df0;stroke-width:0.7068575;stroke-miterlimit:4;stroke-dasharray:none;stroke-opacity:1"
           id="g4246" />
        <g
           style="fill:#006df0;fill-opacity:1;stroke:#006df0;stroke-width:0.7068575;stroke-miterlimit:4;stroke-dasharray:none;stroke-opacity:1"
           id="g4248" />
        <g
           style="fill:#006df0;fill-opacity:1;stroke:#006df0;stroke-width:0.7068575;stroke-miterlimit:4;stroke-dasharray:none;stroke-opacity:1"
           id="g4250" />
        <g
           style="fill:#006df0;fill-opacity:1;stroke:#006df0;stroke-width:0.7068575;stroke-miterlimit:4;stroke-dasharray:none;stroke-opacity:1"
           id="g4252" />
        <g
           style="fill:#006df0;fill-opacity:1;stroke:#006df0;stroke-width:0.7068575;stroke-miterlimit:4;stroke-dasharray:none;stroke-opacity:1"
           id="g4254" />
        <g
           style="fill:#006df0;fill-opacity:1;stroke:#006df0;stroke-width:0.7068575;stroke-miterlimit:4;stroke-dasharray:none;stroke-opacity:1"
           id="g4256" />
        <g
           style="fill:#006df0;fill-opacity:1;stroke:#006df0;stroke-width:0.7068575;stroke-miterlimit:4;stroke-dasharray:none;stroke-opacity:1"
           id="g4258" />
        <g
           style="fill:#006df0;fill-opacity:1;stroke:#006df0;stroke-width:0.7068575;stroke-miterlimit:4;stroke-dasharray:none;stroke-opacity:1"
           id="g4260" />
        <g
           style="fill:#006df0;fill-opacity:1;stroke:#006df0;stroke-width:0.7068575;stroke-miterlimit:4;stroke-dasharray:none;stroke-opacity:1"
           id="g4262" />
        <g
           style="fill:#006df0;fill-opacity:1;stroke:#006df0;stroke-width:0.7068575;stroke-miterlimit:4;stroke-dasharray:none;stroke-opacity:1"
           id="g4264" />
        <g
           style="fill:#006df0;fill-opacity:1;stroke:#006df0;stroke-width:0.7068575;stroke-miterlimit:4;stroke-dasharray:none;stroke-opacity:1"
           id="g4266" />
        <g
           style="fill:#006df0;fill-opacity:1;stroke:#006df0;stroke-width:0.7068575;stroke-miterlimit:4;stroke-dasharray:none;stroke-opacity:1"
           id="g4268" />
        <g
           style="fill:#006df0;fill-opacity:1;stroke:#006df0;stroke-width:0.7068575;stroke-miterlimit:4;stroke-dasharray:none;stroke-opacity:1"
           id="g4270" />
        <g
           style="fill:#006df0;fill-opacity:1;stroke:#006df0;stroke-width:0.7068575;stroke-miterlimit:4;stroke-dasharray:none;stroke-opacity:1"
           id="g4272" />
        <g
           style="fill:#006df0;fill-opacity:1;stroke:#006df0;stroke-width:0.7068575;stroke-miterlimit:4;stroke-dasharray:none;stroke-opacity:1"
           id="g4302" />
      </g>
      <ellipse
         ry="130.5945"
         rx="174.36815"
         cy="247.66917"
         cx="465.52664"
         id="path4168"
         style="fill:none;fill-opacity:1;stroke:#006df0;stroke-width:3;stroke-linecap:round;stroke-linejoin:round;stroke-miterlimit:4;stroke-dasharray:none;stroke-dashoffset:0;stroke-opacity:1" />
    </g>
  </g>
</svg>
