<?xml version="1.0" encoding="UTF-8" standalone="no"?>
<!-- Created with Inkscape (http://www.inkscape.org/) -->

<svg
   xmlns:dc="http://purl.org/dc/elements/1.1/"
   xmlns:cc="http://creativecommons.org/ns#"
   xmlns:rdf="http://www.w3.org/1999/02/22-rdf-syntax-ns#"
   xmlns:svg="http://www.w3.org/2000/svg"
   xmlns="http://www.w3.org/2000/svg"
   xmlns:sodipodi="http://sodipodi.sourceforge.net/DTD/sodipodi-0.dtd"
   xmlns:inkscape="http://www.inkscape.org/namespaces/inkscape"
   width="210mm"
   height="297mm"
   viewBox="0 0 744.09448819 1052.3622047"
   id="svg4386"
   version="1.1"
   inkscape:version="0.91 r13725"
   sodipodi:docname="maternidade.svg"
   inkscape:export-filename="/home/mai/usp/materias/interacao_humano-computador_MAC5786-2016_1/projeto-smartdemand/SMARTS/pics/maternidade2.png"
   inkscape:export-xdpi="7.5"
   inkscape:export-ydpi="7.5">
  <defs
     id="defs4388" />
  <sodipodi:namedview
     id="base"
     pagecolor="#ffffff"
     bordercolor="#666666"
     borderopacity="1.0"
     inkscape:pageopacity="0.0"
     inkscape:pageshadow="2"
     inkscape:zoom="0.40169601"
     inkscape:cx="126.19103"
     inkscape:cy="371.53872"
     inkscape:document-units="px"
     inkscape:current-layer="layer1"
     showgrid="false"
     inkscape:window-width="1280"
     inkscape:window-height="966"
     inkscape:window-x="0"
     inkscape:window-y="0"
     inkscape:window-maximized="1"
     showguides="false" />
  <metadata
     id="metadata4391">
    <rdf:RDF>
      <cc:Work
         rdf:about="">
        <dc:format>image/svg+xml</dc:format>
        <dc:type
           rdf:resource="http://purl.org/dc/dcmitype/StillImage" />
        <dc:title />
      </cc:Work>
    </rdf:RDF>
  </metadata>
  <g
     inkscape:label="Camada 1"
     inkscape:groupmode="layer"
     id="layer1">
    <g
       id="g4274"
       inkscape:export-filename="/home/mai/usp/materias/interacao_humano-computador_MAC5786-2016_1/projeto-smartdemand/SMARTS/pics/maternidade100.png"
       inkscape:export-xdpi="16.717712"
       inkscape:export-ydpi="16.717712">
      <rect
         y="95.329453"
         x="91.538704"
         height="508.35114"
         width="502.63687"
         id="rect4489"
         style="fill:none;fill-opacity:1;stroke:#006df0;stroke-width:30;stroke-linecap:round;stroke-linejoin:round;stroke-miterlimit:2;stroke-dasharray:none;stroke-dashoffset:0;stroke-opacity:1" />
      <ellipse
         ry="47.598778"
         rx="49.519085"
         cy="373.53976"
         cx="290.2562"
         id="path4503"
         style="fill:#006df0;fill-opacity:1;stroke:#006df0;stroke-width:34.03507614;stroke-linecap:round;stroke-linejoin:round;stroke-miterlimit:4;stroke-dasharray:none;stroke-dashoffset:0;stroke-opacity:1" />
      <ellipse
         ry="7.3690381"
         rx="8.9481182"
         cy="292.62967"
         cx="279.69138"
         id="path4499"
         style="fill:#006df0;fill-opacity:1;stroke:#006df0;stroke-width:27.3146553;stroke-linecap:round;stroke-linejoin:round;stroke-miterlimit:4;stroke-dasharray:none;stroke-dashoffset:0;stroke-opacity:1" />
      <path
         inkscape:connector-curvature="0"
         id="path4497"
         d="m 209.04412,232.39707 c 41.28664,-0.32006 41.28664,-0.32006 41.28664,-0.32006 l 4.48072,0.64011 5.44088,3.84062 5.44088,6.08098 3.84061,8.64139 1.28021,9.9216 2.56041,11.2018 7.68124,0.32004 13.44216,37.44604 7.68123,126.10028 9.60155,56.96917 -55.04886,0 0,62.73009 -45.44731,0 0.64011,-62.73009 -57.60927,0 -1.60026,-0.96016 0.6401,-3.84062 36.80593,-237.79825 2.88046,-5.76093 4.16066,-5.44087 6.72109,-5.76094 z"
         style="fill:#006df0;fill-opacity:1;fill-rule:evenodd;stroke:#006df0;stroke-width:1.10723948px;stroke-linecap:butt;stroke-linejoin:miter;stroke-opacity:1" />
      <path
         inkscape:connector-curvature="0"
         id="path4505"
         d="m 242.47733,277.07891 0.1721,9.63738 0.17209,7.22804 1.03258,8.7769 1.20468,4.6466 1.03257,4.4745 1.37677,3.95821 1.72096,4.1303 1.54887,2.58144 1.37676,2.40936 1.72096,2.92563 2.58144,3.26983 3.44194,3.44192 3.26982,3.09773 5.33498,2.40934 5.67917,2.58144 4.3024,1.20468 6.71176,1.03258 19.79105,0.34418 2.75354,1.72096 3.44192,2.40936 2.58144,3.44192 1.54886,3.44192 0.3442,11.35835 -1.03258,2.58144 -2.58144,3.61402 -1.89306,1.72096 -2.23725,1.72096 -2.40935,1.20467 -3.95821,1.03257 -19.27476,-0.17209 -7.22804,-1.20467 -6.53965,-1.03258 -4.4745,-1.20468 -6.36756,-2.06514 -2.75354,-1.03258 -5.16288,-2.58144 -3.26983,-2.06516 -2.06515,-1.03258 -3.61402,-2.40934 -5.67917,-4.3024 -3.44192,-3.78612 -3.95822,-3.78611 -3.61401,-5.16288 -2.75354,-4.4745 -2.40935,-4.30241 -2.23725,-5.85127 -2.06515,-5.33497 -1.37677,-4.13032 -0.86048,-4.81868 -1.20468,-3.78612 -1.03256,-6.53965 -1.37678,-6.88385 -0.3442,-22.71669 0.8605,-2.92563 1.72096,-2.40934 3.09772,-3.61402 2.58144,-1.89306 c 0,0 0.3442,-0.3442 3.09773,-1.37678 2.75354,-1.03257 2.75354,-1.03257 2.75354,-1.03257 l 5.67918,-0.17209 4.99078,1.37676 2.92564,1.72096 2.06515,2.40936 2.40935,2.92562 1.54886,2.06516 z"
         style="fill:#ffffff;fill-opacity:1;fill-rule:evenodd;stroke:none;stroke-width:1px;stroke-linecap:butt;stroke-linejoin:miter;stroke-opacity:1" />
      <circle
         r="26.586596"
         cy="172.54745"
         cx="229.84741"
         id="path4493"
         style="fill:#1992c1;fill-opacity:1;stroke:#1992c1;stroke-width:41.49387741;stroke-linecap:round;stroke-linejoin:round;stroke-miterlimit:4;stroke-dasharray:none;stroke-dashoffset:0;stroke-opacity:1" />
      <ellipse
         ry="18.867149"
         rx="23.196207"
         cy="556.117"
         cx="233.94357"
         id="path4562"
         style="fill:#006df0;fill-opacity:1;stroke:none;stroke-width:30;stroke-linecap:round;stroke-linejoin:round;stroke-miterlimit:4;stroke-dasharray:none;stroke-dashoffset:0;stroke-opacity:1" />
      <ellipse
         ry="47.450264"
         rx="47.312725"
         cy="172.62198"
         cx="229.44617"
         id="path4579"
         style="fill:#006df0;fill-opacity:1;stroke:none;stroke-width:30;stroke-linecap:round;stroke-linejoin:round;stroke-miterlimit:4;stroke-dasharray:none;stroke-dashoffset:0;stroke-opacity:1" />
      <g
         style="fill:#006df0;fill-opacity:1;stroke:#006df0;stroke-width:0.7068575;stroke-miterlimit:4;stroke-dasharray:none;stroke-opacity:1"
         transform="matrix(2.8294247,0,0,2.8294247,396.2221,178.36203)"
         id="g4282">
        <g
           style="fill:#006df0;fill-opacity:1;stroke:#006df0;stroke-width:0.7068575;stroke-miterlimit:4;stroke-dasharray:none;stroke-opacity:1"
           id="g4240">
          <path
             style="fill:#006df0;fill-opacity:1;stroke:#006df0;stroke-width:0.7068575;stroke-miterlimit:4;stroke-dasharray:none;stroke-opacity:1"
             inkscape:connector-curvature="0"
             d="M 46.605,4.22 C 46.379,3.949 46.139,3.686 45.886,3.433 45.632,3.179 45.369,2.939 45.098,2.713 42.402,0.463 38.881,-0.235 35.442,0.798 31.843,1.879 29.054,4.658 27.98,8.234 27.559,9.634 27.095,10.893 26.602,12.029 20.014,6.529 11.694,1.608 8.507,4.796 6.819,6.484 7.268,9.824 9.808,14.454 c 0.265,0.483 0.554,0.976 0.857,1.475 -2.138,0.85 -4.058,2.081 -5.694,3.716 -6.628,6.628 -6.628,17.413 0,24.042 3.314,3.314 7.667,4.971 12.021,4.971 4.354,0 8.707,-1.657 12.021,-4.971 1.636,-1.636 2.866,-3.556 3.716,-5.694 0.498,0.303 0.992,0.592 1.475,0.857 2.794,1.532 5.118,2.304 6.893,2.304 1.167,0 2.096,-0.333 2.766,-1.003 3.071,-3.071 -1.284,-10.813 -6.653,-17.398 1.155,-0.506 2.441,-0.982 3.876,-1.414 3.575,-1.074 6.355,-3.864 7.436,-7.462 1.031,-3.442 0.334,-6.961 -1.917,-9.657 z M 22.089,29.648 c 0.063,0.06 0.125,0.122 0.188,0.181 0.075,0.07 0.15,0.136 0.224,0.206 0.021,0.02 0.042,0.038 0.063,0.058 0.38,0.355 0.76,0.704 1.142,1.047 0.116,0.105 0.232,0.214 0.348,0.317 0.009,0.008 0.019,0.016 0.028,0.024 0.041,0.036 0.082,0.07 0.123,0.106 0.453,0.401 0.906,0.792 1.36,1.174 0.078,0.066 0.157,0.136 0.235,0.201 0.5,0.418 0.999,0.82 1.497,1.213 0.112,0.089 0.224,0.178 0.336,0.266 -0.491,1.892 -1.474,3.611 -2.864,5.002 -4.289,4.288 -11.267,4.289 -15.557,0 -4.289,-4.289 -4.289,-11.268 0,-15.557 1.39,-1.39 3.109,-2.372 5.002,-2.864 0.087,0.112 0.177,0.224 0.266,0.336 0.393,0.498 0.796,0.997 1.213,1.497 0.066,0.078 0.135,0.157 0.201,0.235 0.382,0.453 0.774,0.907 1.174,1.36 0.036,0.041 0.07,0.082 0.106,0.123 0.008,0.009 0.016,0.019 0.024,0.028 0.103,0.116 0.213,0.232 0.317,0.348 0.343,0.381 0.692,0.762 1.047,1.142 0.02,0.021 0.038,0.042 0.058,0.063 0.07,0.075 0.136,0.15 0.206,0.224 0.059,0.063 0.122,0.125 0.181,0.188 0.497,0.523 1.001,1.044 1.518,1.562 0.517,0.518 1.041,1.023 1.564,1.52 z m 5.51,12.624 c -5.848,5.849 -15.364,5.85 -21.213,0 -5.849,-5.849 -5.849,-15.365 0,-21.213 1.532,-1.531 3.333,-2.685 5.363,-3.434 0.131,0.195 0.273,0.394 0.409,0.591 0.211,0.306 0.424,0.613 0.646,0.921 0.045,0.063 0.086,0.124 0.131,0.187 -1.929,0.632 -3.685,1.699 -5.135,3.149 -5.068,5.068 -5.068,13.316 0,18.385 2.535,2.534 5.864,3.801 9.192,3.801 3.329,0 6.658,-1.267 9.192,-3.801 1.45,-1.45 2.517,-3.206 3.149,-5.135 0.063,0.046 0.125,0.086 0.187,0.131 0.309,0.222 0.615,0.435 0.921,0.646 0.197,0.136 0.396,0.278 0.591,0.409 -0.749,2.03 -1.902,3.831 -3.433,5.363 z m 14.849,-3.536 c -0.735,0.734 -3.032,0.69 -7.283,-1.64 -0.877,-0.481 -1.789,-1.043 -2.717,-1.654 -0.264,-0.174 -0.529,-0.35 -0.795,-0.533 -0.219,-0.15 -0.44,-0.307 -0.661,-0.464 C 30.717,34.25 30.442,34.056 30.164,33.852 29.889,33.649 29.612,33.435 29.335,33.223 29.294,33.191 29.252,33.16 29.211,33.128 28.72,32.75 28.228,32.359 27.737,31.959 27.616,31.86 27.495,31.764 27.373,31.663 26.905,31.276 26.438,30.876 25.971,30.47 25.86,30.373 25.748,30.279 25.637,30.181 25.551,30.105 25.464,30.027 25.378,29.95 24.975,29.592 24.573,29.225 24.172,28.853 24.11,28.795 24.048,28.74 23.985,28.682 c -0.13,-0.121 -0.26,-0.241 -0.39,-0.364 -0.554,-0.524 -1.106,-1.056 -1.655,-1.604 -0.548,-0.548 -1.08,-1.101 -1.604,-1.655 -0.123,-0.13 -0.243,-0.26 -0.364,-0.39 C 19.914,24.607 19.858,24.545 19.801,24.482 19.429,24.081 19.062,23.679 18.704,23.276 18.627,23.19 18.549,23.103 18.473,23.017 18.375,22.905 18.281,22.794 18.184,22.683 17.778,22.216 17.377,21.749 16.991,21.281 16.89,21.159 16.795,21.038 16.695,20.917 16.295,20.426 15.904,19.935 15.526,19.443 15.494,19.402 15.463,19.36 15.431,19.319 15.219,19.042 15.005,18.765 14.802,18.49 14.598,18.213 14.404,17.938 14.209,17.662 14.052,17.441 13.895,17.22 13.745,17.001 13.562,16.735 13.386,16.47 13.212,16.206 12.601,15.278 12.04,14.366 11.558,13.489 9.228,9.24 9.183,6.941 9.918,6.206 10.214,5.91 10.684,5.761 11.306,5.761 c 2.625,0 7.962,2.656 14.391,8.113 -0.1,0.183 -0.198,0.381 -0.3,0.554 -0.009,0.015 -0.018,0.031 -0.027,0.046 -0.234,0.393 -0.473,0.757 -0.716,1.093 -0.008,0.011 -0.016,0.022 -0.024,0.033 -0.243,0.333 -0.489,0.635 -0.739,0.908 -0.011,0.012 -0.021,0.023 -0.032,0.034 -0.247,0.267 -0.498,0.504 -0.752,0.711 -0.016,0.013 -0.033,0.025 -0.049,0.038 -0.254,0.203 -0.511,0.378 -0.77,0.518 l -1.256,0.677 1.064,0.95 c 1.145,1.022 2.265,2.079 3.327,3.141 1.511,1.511 2.981,3.107 4.368,4.743 l 0.975,1.15 0,0 0.001,0.001 0.68,-1.346 c 0.134,-0.264 0.305,-0.526 0.504,-0.786 0.012,-0.015 0.022,-0.031 0.034,-0.047 0.202,-0.258 0.437,-0.513 0.702,-0.765 0.012,-0.011 0.024,-0.023 0.036,-0.035 0.27,-0.254 0.571,-0.504 0.902,-0.75 0.012,-0.009 0.025,-0.018 0.038,-0.028 0.334,-0.246 0.698,-0.489 1.092,-0.726 0.016,-0.01 0.034,-0.019 0.05,-0.029 0.174,-0.104 0.375,-0.204 0.56,-0.306 6.292,7.612 8.556,13.61 7.083,15.083 z m 4.157,-25.435 c -0.887,2.953 -3.166,5.242 -6.096,6.123 -1.466,0.441 -3.08,1.019 -4.628,1.736 l -0.017,-0.02 -0.703,0.352 c -0.042,0.021 -0.076,0.043 -0.117,0.064 -0.228,0.116 -0.445,0.244 -0.668,0.367 -1.121,0.62 -2.078,1.277 -2.849,1.973 -0.054,0.048 -0.116,0.092 -0.168,0.141 -0.34,0.32 -0.647,0.646 -0.913,0.98 -0.464,-0.529 -0.941,-1.049 -1.42,-1.567 -0.718,-0.777 -1.445,-1.543 -2.186,-2.285 -0.794,-0.794 -1.619,-1.585 -2.462,-2.36 0.329,-0.268 0.651,-0.577 0.965,-0.917 0.057,-0.062 0.109,-0.136 0.165,-0.2 0.659,-0.747 1.283,-1.66 1.873,-2.724 0.141,-0.254 0.285,-0.504 0.417,-0.765 0.02,-0.039 0.041,-0.071 0.06,-0.11 l 0.344,-0.693 -0.018,-0.016 c 0.706,-1.533 1.276,-3.128 1.71,-4.572 0.881,-2.93 3.169,-5.208 6.123,-6.095 2.787,-0.836 5.628,-0.277 7.799,1.534 0.225,0.188 0.443,0.387 0.656,0.6 0.211,0.21 0.411,0.429 0.598,0.653 l 0,0 c 1.811,2.172 2.371,5.015 1.535,7.801 z"
             id="path4242" />
          <path
             style="fill:#006df0;fill-opacity:1;stroke:#006df0;stroke-width:0.7068575;stroke-miterlimit:4;stroke-dasharray:none;stroke-opacity:1"
             inkscape:connector-curvature="0"
             d="m 37.981,5.026 c -1.737,0 -3.424,0.831 -4.751,2.339 -0.365,0.415 -0.324,1.047 0.09,1.412 0.417,0.365 1.047,0.324 1.412,-0.09 1.91,-2.173 4.588,-2.173 6.498,0 0.198,0.225 0.474,0.339 0.751,0.339 0.234,0 0.47,-0.082 0.66,-0.249 0.415,-0.365 0.455,-0.997 0.09,-1.412 -1.326,-1.508 -3.013,-2.339 -4.75,-2.339 z"
             id="path4244" />
        </g>
        <g
           style="fill:#006df0;fill-opacity:1;stroke:#006df0;stroke-width:0.7068575;stroke-miterlimit:4;stroke-dasharray:none;stroke-opacity:1"
           id="g4246" />
        <g
           style="fill:#006df0;fill-opacity:1;stroke:#006df0;stroke-width:0.7068575;stroke-miterlimit:4;stroke-dasharray:none;stroke-opacity:1"
           id="g4248" />
        <g
           style="fill:#006df0;fill-opacity:1;stroke:#006df0;stroke-width:0.7068575;stroke-miterlimit:4;stroke-dasharray:none;stroke-opacity:1"
           id="g4250" />
        <g
           style="fill:#006df0;fill-opacity:1;stroke:#006df0;stroke-width:0.7068575;stroke-miterlimit:4;stroke-dasharray:none;stroke-opacity:1"
           id="g4252" />
        <g
           style="fill:#006df0;fill-opacity:1;stroke:#006df0;stroke-width:0.7068575;stroke-miterlimit:4;stroke-dasharray:none;stroke-opacity:1"
           id="g4254" />
        <g
           style="fill:#006df0;fill-opacity:1;stroke:#006df0;stroke-width:0.7068575;stroke-miterlimit:4;stroke-dasharray:none;stroke-opacity:1"
           id="g4256" />
        <g
           style="fill:#006df0;fill-opacity:1;stroke:#006df0;stroke-width:0.7068575;stroke-miterlimit:4;stroke-dasharray:none;stroke-opacity:1"
           id="g4258" />
        <g
           style="fill:#006df0;fill-opacity:1;stroke:#006df0;stroke-width:0.7068575;stroke-miterlimit:4;stroke-dasharray:none;stroke-opacity:1"
           id="g4260" />
        <g
           style="fill:#006df0;fill-opacity:1;stroke:#006df0;stroke-width:0.7068575;stroke-miterlimit:4;stroke-dasharray:none;stroke-opacity:1"
           id="g4262" />
        <g
           style="fill:#006df0;fill-opacity:1;stroke:#006df0;stroke-width:0.7068575;stroke-miterlimit:4;stroke-dasharray:none;stroke-opacity:1"
           id="g4264" />
        <g
           style="fill:#006df0;fill-opacity:1;stroke:#006df0;stroke-width:0.7068575;stroke-miterlimit:4;stroke-dasharray:none;stroke-opacity:1"
           id="g4266" />
        <g
           style="fill:#006df0;fill-opacity:1;stroke:#006df0;stroke-width:0.7068575;stroke-miterlimit:4;stroke-dasharray:none;stroke-opacity:1"
           id="g4268" />
        <g
           style="fill:#006df0;fill-opacity:1;stroke:#006df0;stroke-width:0.7068575;stroke-miterlimit:4;stroke-dasharray:none;stroke-opacity:1"
           id="g4270" />
        <g
           style="fill:#006df0;fill-opacity:1;stroke:#006df0;stroke-width:0.7068575;stroke-miterlimit:4;stroke-dasharray:none;stroke-opacity:1"
           id="g4272" />
        <g
           style="fill:#006df0;fill-opacity:1;stroke:#006df0;stroke-width:0.7068575;stroke-miterlimit:4;stroke-dasharray:none;stroke-opacity:1"
           id="g4302" />
      </g>
      <path
         inkscape:connector-curvature="0"
         id="path4262"
         d="m 106.77336,348.98051 0,-237.74197 235.25252,0 235.25253,0 0,237.74197 0,237.74197 -235.25253,0 -235.25252,0 0,-237.74197 z m 138.04376,224.26078 c 4.638,-1.93789 9.64314,-5.78513 11.12254,-8.5494 1.53311,-2.86466 2.68983,-19.01344 2.68983,-37.55243 l 0,-32.52644 27.38389,0 c 15.06114,0 27.3837,-0.84019 27.38346,-1.86708 -2.3e-4,-1.0269 -1.65606,-10.82909 -3.67962,-21.78264 -2.02355,-10.95356 -4.20398,-22.83687 -4.84539,-26.40736 -1.02808,-5.72293 -0.0451,-6.82765 8.29928,-9.3277 12.20716,-3.65737 31.31936,-20.52477 38.12855,-33.65022 3.88762,-7.49383 5.37633,-14.99617 5.49717,-27.70307 0.14289,-15.02379 -0.89272,-19.31365 -7.51207,-31.11805 -8.51595,-15.18666 -24.88641,-28.05983 -41.30509,-32.48092 -7.93589,-2.13691 -9.57194,-3.52133 -8.13029,-6.87981 4.97532,-11.59059 4.14693,-17.72267 -3.41583,-25.28544 -5.03715,-5.03715 -10.02282,-7.54773 -14.98875,-7.54773 -6.81875,0 -7.58802,-0.88477 -9.19892,-10.58014 -2.21183,-13.31205 -7.29609,-23.37901 -13.4785,-26.68773 -2.63421,-1.40979 -15.78555,-2.53834 -29.22521,-2.50789 -26.13782,0.0592 -31.73779,2.18964 -38.03727,14.47075 -2.41623,4.71055 -39.79197,235.418 -39.89261,246.24323 -0.0216,2.31804 7.58574,3.1118 29.82339,3.1118 l 29.85232,0 -1.59702,29.70122 c -1.85349,34.47101 0.5158,43.63665 12.64519,48.91813 9.82929,4.27996 12.25657,4.28093 22.48095,0.01 l 0,-0.001 z M 467.25406,311.41616 c 7.11481,-3.54546 12.97327,-7.18627 13.01883,-8.09069 0.0455,-0.90443 2.23544,-4.22658 4.86641,-7.38256 4.69054,-5.6265 5.00996,-5.66131 16.4161,-1.78882 10.68096,3.62627 12.13968,3.61701 17.83281,-0.11327 5.36876,-3.51776 6.02177,-5.39378 4.86898,-13.98833 -0.73222,-5.45915 -5.31367,-15.9236 -10.181,-23.25433 -8.76044,-13.19418 -8.79392,-13.34553 -3.31943,-15.00749 18.55938,-5.6343 29.54388,-24.08116 24.45454,-41.06787 -8.88814,-29.66595 -49.32875,-30.01219 -61.64811,-0.52781 l -3.46043,8.28197 -11.63728,-8.00665 c -6.40049,-4.40366 -16.02787,-9.51934 -21.39414,-11.36818 -8.46962,-2.91801 -10.53859,-2.84932 -15.68186,0.52068 -6.94627,4.55136 -7.68307,13.0621 -2.07047,23.91569 3.84295,7.43147 3.81995,7.48518 -7.6844,17.92485 -27.14418,24.63208 -20.75091,66.26491 12.54295,81.67946 13.96919,6.46753 27.74065,5.91553 43.0765,-1.72664 z M 250.01942,216.09479 c 22.15916,-10.06551 33.29109,-35.11227 25.69238,-57.80768 -14.08068,-42.05539 -71.4645,-45.9476 -89.57578,-6.07572 -18.64535,41.04763 22.83577,82.52875 63.8834,63.8834 z"
         style="fill:#ffffff;fill-opacity:1;stroke:#006df0;stroke-width:7.4683342;stroke-linecap:round;stroke-linejoin:round;stroke-miterlimit:4;stroke-dasharray:none;stroke-dashoffset:0;stroke-opacity:1" />
      <path
         inkscape:connector-curvature="0"
         id="path4264"
         d="m 260.8927,373.74174 c -13.78265,-4.24572 -33.0203,-20.56743 -39.71957,-33.6991 -6.16329,-12.08104 -12.24771,-37.58724 -12.29574,-51.54432 -0.0481,-13.97137 9.10118,-24.24884 19.38167,-21.77167 9.25001,2.22887 12.94431,7.94877 12.94431,20.04171 0,14.63513 6.47702,34.51286 14.25946,43.76176 8.62062,10.24503 19.6521,14.71622 36.30837,14.71622 16.01903,0 21.62607,4.70758 21.62607,18.15691 0,6.40142 -1.40991,9.80637 -4.81523,11.62884 -6.78668,3.63212 -34.10969,2.89283 -47.68934,-1.29035 z"
         style="fill:#ffffff;fill-opacity:1;stroke:#ffffff;stroke-width:7.4683342;stroke-linecap:round;stroke-linejoin:round;stroke-miterlimit:4;stroke-dasharray:none;stroke-dashoffset:0;stroke-opacity:1" />
      <path
         inkscape:connector-curvature="0"
         id="path4266"
         d="m 111.75225,348.98051 0,-232.76308 230.27363,0 230.27364,0 0,232.76308 0,232.76308 -167.41516,-0.0973 c -141.0967,-0.0821 -166.2411,-0.61569 -159.94682,-3.39404 15.4654,-6.8266 17.15544,-11.12781 18.25639,-46.46327 l 1.00316,-32.19703 22.87956,0 c 32.50365,0 32.47284,0.0366 26.7918,-31.7334 l -4.56161,-25.50976 10.23586,-4.95512 c 13.40269,-6.48811 30.70535,-23.6365 36.45987,-36.13478 3.14718,-6.8354 4.59462,-15.81223 4.6161,-28.62862 0.0271,-16.15479 -0.95841,-20.39648 -7.31321,-31.47639 -8.43585,-14.70831 -21.4671,-26.32765 -36.50006,-32.54534 -10.13491,-4.19185 -10.44006,-4.65225 -10.04214,-15.15142 0.36259,-9.56678 -0.67286,-11.82101 -8.88846,-19.35059 -5.11438,-4.68731 -11.47632,-8.52238 -14.13766,-8.52238 -3.67878,0 -5.78063,-3.13322 -8.76745,-13.06958 -5.42495,-18.04741 -9.13823,-21.96089 -24.32644,-25.63804 -7.24572,-1.75423 -11.03197,-3.28478 -8.41387,-3.40122 9.16459,-0.40761 26.1638,-12.68388 32.27126,-23.30525 8.23132,-14.31491 9.9957,-24.71198 6.59749,-38.87732 -10.87307,-45.32402 -72.82001,-56.06665 -95.92818,-16.63554 -16.98943,28.99027 -5.1008,65.60192 24.81519,76.41968 l 8.61462,3.11509 -11.523,3.89234 c -6.33765,2.14079 -13.59952,6.71346 -16.1375,10.1615 -3.38531,4.59921 -8.53613,29.79821 -19.33656,94.5989 -22.71093,136.26165 -25.92228,159.34963 -22.62399,162.65524 1.66563,1.66932 13.98859,3.19237 29.78612,3.68139 l 26.94513,0.83409 -0.30177,30.36582 c -0.33957,34.16957 2.1979,41.42626 16.68988,47.72995 7.01684,3.05216 1.27453,3.44846 -51.22151,3.53499 l -59.12431,0.0974 0,-232.76308 z m 352.2152,-31.31644 c 8.72846,-3.26573 16.2615,-8.21518 20.40274,-13.40523 5.90944,-7.40608 7.33243,-8.00794 14.2457,-6.02523 12.23577,3.50917 21.02351,2.58452 26.38418,-2.77616 6.97136,-6.97137 6.24295,-14.31514 -3.30081,-33.27758 -7.43831,-14.77917 -7.83744,-16.59125 -3.92779,-17.83212 2.39352,-0.75968 8.35988,-5.81763 13.25856,-11.23989 7.7769,-8.60809 8.90671,-11.47834 8.90671,-22.62723 0,-15.60137 -6.58264,-27.36873 -18.46394,-33.00678 -17.38357,-8.24904 -37.18974,-2.60906 -47.95276,13.65498 l -6.22572,9.40771 -12.40655,-7.63382 c -6.82359,-4.1986 -17.18511,-8.17243 -23.02557,-8.83073 -9.3345,-1.05214 -11.26964,-0.36978 -15.99779,5.6411 -6.17746,7.85334 -6.54002,11.31484 -2.38788,22.79741 2.84685,7.8728 2.5529,8.72081 -6.10205,17.60285 -29.21351,29.98008 -19.10574,75.25289 19.90983,89.17617 13.08771,4.67054 20.76481,4.33036 36.68314,-1.62545 z"
         style="fill:#ffffff;fill-opacity:1;stroke:#ffffff;stroke-width:7.4683342;stroke-linecap:round;stroke-linejoin:round;stroke-miterlimit:4;stroke-dasharray:none;stroke-dashoffset:0;stroke-opacity:1" />
      <path
         inkscape:connector-curvature="0"
         id="path4268"
         d="m 434.13534,294.45541 c -11.11266,-4.90525 -16.62567,-12.45016 -17.9988,-24.63255 -1.08321,-9.61021 -0.28143,-11.97871 6.77591,-20.01658 4.40247,-5.01414 8.76197,-9.11662 9.68777,-9.11662 0.92581,0 10.22922,8.38132 20.67425,18.62515 l 18.99097,18.62515 -5.16872,6.57097 c -4.5932,5.8393 -18.29518,13.6013 -23.54601,13.33852 -1.07087,-0.0536 -5.30779,-1.58091 -9.41537,-3.39404 z"
         style="fill:#ffffff;fill-opacity:1;stroke:#ffffff;stroke-width:7.4683342;stroke-linecap:round;stroke-linejoin:round;stroke-miterlimit:4;stroke-dasharray:none;stroke-dashoffset:0;stroke-opacity:1" />
      <path
         inkscape:connector-curvature="0"
         id="path4270"
         d="m 497.56076,281.27164 c -25.81318,-12.86325 -67.35049,-58.34024 -71.29354,-78.05549 -1.48677,-7.43382 -1.22486,-7.79896 4.38821,-6.11785 6.67077,1.99789 23.25229,11.26974 30.8638,17.25804 4.93097,3.8794 4.91684,3.97261 -1.46746,9.68317 l -6.44634,5.76606 14.79458,15.74008 14.79458,15.74007 5.70794,-7.15844 5.70793,-7.15843 5.18846,6.19582 c 10.51933,12.56172 18.9852,34.82444 13.24271,34.82444 -1.10036,0 -8.06675,-3.02286 -15.48087,-6.71747 z"
         style="fill:#ffffff;fill-opacity:1;stroke:#006df0;stroke-width:7.4683342;stroke-linecap:round;stroke-linejoin:round;stroke-miterlimit:4;stroke-dasharray:none;stroke-dashoffset:0;stroke-opacity:1" />
      <path
         inkscape:connector-curvature="0"
         id="path4272"
         d="m 474.66854,239.01546 c -6.54643,-6.54643 -6.58139,-6.75597 -2.18069,-13.06959 2.45983,-3.52906 6.5092,-11.83623 8.99861,-18.46037 6.36723,-16.94273 15.69248,-22.32056 31.64346,-18.24866 7.09232,1.8105 14.35959,12.57248 14.35959,21.26486 0,8.08492 -11.08041,18.75513 -24.47969,23.57345 -6.92149,2.48893 -13.90437,6.11565 -15.51752,8.05937 -4.00146,4.82147 -5.16663,4.53807 -12.82376,-3.11906 z m 22.79696,-36.1511 c 3.70628,-2.31461 6.26378,-2.28822 11.54743,0.11918 5.00279,2.27942 7.5052,2.3601 9.51987,0.30692 3.58882,-3.6574 -6.76686,-12.38969 -14.69301,-12.38969 -7.21559,0 -17.5593,8.20371 -15.18584,12.04405 2.22783,3.60472 2.92077,3.59839 8.81155,-0.0805 z"
         style="fill:#ffffff;fill-opacity:1;stroke:#ffffff;stroke-width:7.4683342;stroke-linecap:round;stroke-linejoin:round;stroke-miterlimit:4;stroke-dasharray:none;stroke-dashoffset:0;stroke-opacity:1" />
    </g>
  </g>
</svg>
