<?xml version="1.0" encoding="UTF-8" standalone="no"?>
<!-- Generated by IcoMoon.io -->

<svg
   xmlns:dc="http://purl.org/dc/elements/1.1/"
   xmlns:cc="http://creativecommons.org/ns#"
   xmlns:rdf="http://www.w3.org/1999/02/22-rdf-syntax-ns#"
   xmlns:svg="http://www.w3.org/2000/svg"
   xmlns="http://www.w3.org/2000/svg"
   xmlns:sodipodi="http://sodipodi.sourceforge.net/DTD/sodipodi-0.dtd"
   xmlns:inkscape="http://www.inkscape.org/namespaces/inkscape"
   version="1.1"
   width="512px"
   height="512px"
   viewBox="0 0 16 16"
   id="svg2"
   inkscape:version="0.91 r13725"
   sodipodi:docname="prontosocorro_square.svg">
  <metadata
     id="metadata12">
    <rdf:RDF>
      <cc:Work
         rdf:about="">
        <dc:format>image/svg+xml</dc:format>
        <dc:type
           rdf:resource="http://purl.org/dc/dcmitype/StillImage" />
        <dc:title />
      </cc:Work>
    </rdf:RDF>
  </metadata>
  <defs
     id="defs10" />
  <sodipodi:namedview
     pagecolor="#ffffff"
     bordercolor="#666666"
     borderopacity="1"
     objecttolerance="10"
     gridtolerance="10"
     guidetolerance="10"
     inkscape:pageopacity="0"
     inkscape:pageshadow="2"
     inkscape:window-width="1280"
     inkscape:window-height="966"
     id="namedview8"
     showgrid="false"
     inkscape:zoom="1.3036438"
     inkscape:cx="256"
     inkscape:cy="258.16949"
     inkscape:window-x="0"
     inkscape:window-y="0"
     inkscape:window-maximized="1"
     inkscape:current-layer="svg2" />
  <path
     fill="#006DF0"
     d="M12 7h-3v-3h-2v3h-3v2h3v3h2v-3h3z"
     id="path4"
     inkscape:export-xdpi="20.09"
     inkscape:export-ydpi="20.09" />
  <path
     fill="#006DF0"
     d="M15 1h-14v14h14v-14zM14 14h-12v-12h12v12z"
     id="path6"
     style="stroke-width:0.03125;stroke-miterlimit:4;stroke-dasharray:none"
     inkscape:export-xdpi="20.09"
     inkscape:export-ydpi="20.09" />
  <path
     style="fill:#ffffff;fill-opacity:1;stroke:#000000;stroke-width:3.06832266;stroke-linecap:round;stroke-linejoin:round;stroke-miterlimit:4;stroke-dasharray:none;stroke-dashoffset:0;stroke-opacity:0"
     d="m 64.383248,256.28517 0,-191.770172 191.770172,0 191.77016,0 0,191.770172 0,191.77017 -191.77016,0 -191.770172,0 0,-191.77017 z m 223.987552,80.15993 0,-47.94255 47.95087,0 47.95087,0 -0.2001,-32.40915 -0.20009,-32.40916 -47.75077,-0.19758 -47.75078,-0.19758 0,-47.93673 0,-47.93674 -32.21738,0 -32.21739,0 0,47.94255 0,47.94254 -47.94254,0 -47.94255,0 0,32.60093 0,32.60092 47.94255,0 47.94254,0 0,47.94255 0,47.94254 32.21739,0 32.21738,0 0,-47.94254 z"
     id="path4134"
     inkscape:connector-curvature="0"
     transform="scale(0.03125,0.03125)"
     inkscape:export-xdpi="23.280001"
     inkscape:export-ydpi="23.280001" />
</svg>
