<?xml version="1.0" encoding="UTF-8" standalone="no"?>
<!-- Generator: Adobe Illustrator 16.0.0, SVG Export Plug-In . SVG Version: 6.00 Build 0)  -->

<svg
   xmlns:dc="http://purl.org/dc/elements/1.1/"
   xmlns:cc="http://creativecommons.org/ns#"
   xmlns:rdf="http://www.w3.org/1999/02/22-rdf-syntax-ns#"
   xmlns:svg="http://www.w3.org/2000/svg"
   xmlns="http://www.w3.org/2000/svg"
   xmlns:sodipodi="http://sodipodi.sourceforge.net/DTD/sodipodi-0.dtd"
   xmlns:inkscape="http://www.inkscape.org/namespaces/inkscape"
   version="1.1"
   id="Capa_1"
   x="0px"
   y="0px"
   width="407.504px"
   height="407.504px"
   viewBox="0 0 407.504 407.504"
   style="enable-background:new 0 0 407.504 407.504;"
   xml:space="preserve"
   inkscape:version="0.91 r13725"
   sodipodi:docname="dentista.svg"><metadata
     id="metadata41"><rdf:RDF><cc:Work
         rdf:about=""><dc:format>image/svg+xml</dc:format><dc:type
           rdf:resource="http://purl.org/dc/dcmitype/StillImage" /><dc:title /></cc:Work></rdf:RDF></metadata><defs
     id="defs39" /><sodipodi:namedview
     pagecolor="#ffffff"
     bordercolor="#666666"
     borderopacity="1"
     objecttolerance="10"
     gridtolerance="10"
     guidetolerance="10"
     inkscape:pageopacity="0"
     inkscape:pageshadow="2"
     inkscape:window-width="1280"
     inkscape:window-height="966"
     id="namedview37"
     showgrid="false"
     inkscape:zoom="0.7424556"
     inkscape:cx="-198.52062"
     inkscape:cy="281.04607"
     inkscape:window-x="0"
     inkscape:window-y="0"
     inkscape:window-maximized="1"
     inkscape:current-layer="Capa_1" /><g
     id="g7" /><g
     id="g9" /><g
     id="g11" /><g
     id="g13" /><g
     id="g15" /><g
     id="g17" /><g
     id="g19" /><g
     id="g21" /><g
     id="g23" /><g
     id="g25" /><g
     id="g27" /><g
     id="g29" /><g
     id="g31" /><g
     id="g33" /><g
     id="g35" /><g
     id="g4222"
     inkscape:export-xdpi="20.09"
     inkscape:export-ydpi="20.09"
     transform="translate(514.50888,238.39809)"><path
       inkscape:connector-curvature="0"
       id="path4227"
       d="M -448.32875,76.478694 C -202.52282,-91.881533 -202.52282,-91.881533 -202.52282,-91.881533"
       style="fill:none;fill-rule:evenodd;stroke:#006df0;stroke-width:20;stroke-linecap:round;stroke-linejoin:miter;stroke-miterlimit:4;stroke-dasharray:none;stroke-opacity:1" /><path
       inkscape:connector-curvature="0"
       id="path4229"
       d="m -196.46185,-99.289383 c 26.93764,-37.712697 26.93764,-37.712697 26.93764,-37.712697"
       style="fill:none;fill-rule:evenodd;stroke:#006df0;stroke-width:10;stroke-linecap:butt;stroke-linejoin:miter;stroke-miterlimit:4;stroke-dasharray:none;stroke-opacity:1" /><ellipse
       transform="matrix(0.93969262,0.34202014,-0.34202014,0.93969262,0,0)"
       ry="38.24892"
       rx="16.574532"
       cy="-107.88718"
       cx="-202.18427"
       id="path4231"
       style="fill:#000000;fill-opacity:0;stroke:#006df0;stroke-width:5.04855585;stroke-linecap:round;stroke-linejoin:round;stroke-miterlimit:4;stroke-dasharray:none;stroke-dashoffset:0;stroke-opacity:1" /><path
       inkscape:export-ydpi="20.09"
       inkscape:export-xdpi="20.09"
       style="fill:#006df0;stroke-width:0.03125;stroke-miterlimit:4;stroke-dasharray:none"
       id="path6"
       d="m -78.174582,-260.26095 -447.999998,0 0,448 447.999998,0 0,-448 z m -31.999998,416 -384,0 0,-384 384,0 0,384 z"
       inkscape:connector-curvature="0" /><g
       transform="matrix(0.47457627,0,0,0.47457627,-410.32386,-112.27266)"
       style="fill:#006df0;fill-opacity:1;stroke:#006df0;stroke-opacity:1"
       id="g3"><path
         inkscape:connector-curvature="0"
         style="fill:#006df0;fill-opacity:1;stroke:#006df0;stroke-opacity:1"
         id="path5"
         d="M 376.328,45.601 C 355.197,21.943 326.115,8.915 294.437,8.915 269.671,8.915 242.96,23.65 223.443,34.416 216.338,38.338 206.622,43.7 203.75,44.053 200.891,43.706 191.225,38.358 184.137,34.437 164.67,23.666 138.009,8.915 113.068,8.915 81.389,8.915 52.306,21.943 31.174,45.601 11.071,68.108 0,97.734 0,129.021 c 0,44.695 16.05,108.255 42.933,170.029 11.96,27.484 24.691,51.233 36.816,68.68 14.432,20.766 26.817,30.859 37.864,30.859 4.902,0 13.878,-2.079 18.914,-16.007 4.894,-13.534 9.296,-29.069 13.964,-45.547 12.354,-43.606 27.728,-97.878 52.48,-97.878 l 1.563,0 c 11.005,0 20.856,9.426 30.115,28.818 9.172,19.209 16.145,44.752 22.898,69.485 4.463,16.351 8.68,31.792 13.416,45.085 4.934,13.842 13.809,15.912 18.666,15.915 10.992,-10e-4 23.365,-10.249 37.828,-31.329 12.094,-17.626 24.852,-41.611 36.895,-69.361 27.02,-62.271 43.152,-125.354 43.152,-168.75 0,-31.287 -11.072,-60.913 -31.176,-83.419 m -89.531,32.084 c -0.254,-0.017 -25.844,-1.242 -49.139,-7.411 -10.504,-2.781 -22.924,-8.369 -22.924,-10.027 0,-1.614 13.494,-9.471 16.748,-11.267 17.924,-9.888 42.469,-23.43 62.955,-23.43 60.361,0 96.432,52.609 96.432,103.471 0,40.62 -16.008,102.744 -41.779,162.126 -11.457,26.404 -24.012,50.047 -35.35,66.572 -13.082,19.067 -21.547,24.61 -24.111,24.105 -1.574,-0.311 -1.77,-1.427 -2.994,-4.865 -4.531,-12.712 -8.668,-27.863 -13.047,-43.904 -6.938,-25.41 -14.109,-51.687 -23.928,-72.25 -12.301,-25.762 -27.062,-38.285 -45.126,-38.285 l -1.563,0 c -17.401,0 -31.821,12.423 -44.081,37.978 -9.786,20.397 -17.218,46.631 -24.404,72.002 -4.58,16.165 -8.905,31.436 -13.602,44.424 -1.037,2.867 -1.357,4.739 -3.271,5.029 -1.5,0.228 -7.907,-0.269 -24.204,-23.718 C 82.063,341.91 69.554,318.533 58.186,292.411 32.556,233.517 16.635,170.91 16.635,129.02 c 0,-50.862 36.071,-103.471 96.433,-103.471 15.69,0 36.309,7.149 55.155,19.124 2.764,1.757 6.656,4.748 10.42,7.642 1.502,1.155 2.982,2.292 4.36,3.329 4.418,3.309 10.388,7.636 17.398,11.763 2.989,1.764 6.708,3.96 10.658,5.636 15.105,6.412 31.121,9.663 47.602,9.663 16.793,0 28.088,-2.987 28.199,-3.022 0,0 2.527,-0.668 2.447,-1.325 -0.08,-0.657 -2.51,-0.674 -2.51,-0.674 z" /></g><path
       inkscape:connector-curvature="0"
       id="path4242"
       d="m -359.5515,64.845106 c -12.22494,-12.683163 -29.40702,-49.924931 -37.09569,-80.404086 -4.67484,-18.531814 -6.21814,-35.329302 -4.1732,-45.421527 3.1017,-15.30751 12.00231,-27.731233 24.12303,-33.671613 8.02632,-3.93371 12.87206,-4.98548 21.04098,-4.56698 10.34303,0.52988 18.94756,4.14762 30.98255,13.02647 12.36776,9.124356 21.21823,12.67259 33.68624,13.50512 8.50857,0.568146 20.11633,-1.185389 18.40451,-2.780292 -0.12969,-0.12083 -3.38093,-0.558177 -7.22498,-0.971884 -9.71423,-1.04547 -19.00853,-3.086671 -23.75622,-5.217308 -3.86229,-1.733293 -3.96968,-1.848394 -2.7981,-2.999006 2.4017,-2.35872 18.55523,-10.59022 24.97626,-12.72739 6.15967,-2.05016 6.96518,-2.15858 13.61805,-1.83295 16.3136,0.79848 29.09072,9.51457 36.74775,25.068 4.45261,9.044423 5.31832,13.070144 5.28592,24.580593 -0.029,10.308882 -1.28878,18.987418 -4.74112,32.661885 -6.17542,24.460358 -19.42558,55.989859 -30.47155,72.508765 -4.26705,6.381237 -9.93659,12.681513 -11.41194,12.681513 -1.01946,0 -2.11362,-3.219701 -7.19193,-21.163144 -9.16312,-32.376562 -13.50455,-42.323412 -21.572,-49.424665 -7.28627,-6.413629 -17.56198,-6.440014 -24.80587,-0.06371 -7.41305,6.525225 -12.91413,19.042451 -21.28315,48.427945 -4.69981,16.502104 -6.74552,22.22355 -7.94605,22.22355 -0.59314,0 -2.5702,-1.547688 -4.39349,-3.43931 l 0,2.1e-5 z"
       style="fill:#ffffff;fill-opacity:1;stroke:#006df0;stroke-width:2.0203228;stroke-linecap:round;stroke-linejoin:round;stroke-miterlimit:4;stroke-dasharray:none;stroke-dashoffset:0;stroke-opacity:1" /><path
       inkscape:connector-curvature="0"
       id="path4216"
       d="m -168.53392,-141.93237 c -2.64356,-6.32693 -2.45425,-13.13615 0.7091,-25.5047 5.00718,-19.57792 17.09894,-36.52227 25.38008,-35.56546 11.14444,1.28764 7.33492,32.61837 -6.47627,53.26285 -5.11606,7.64732 -11.09484,12.47814 -15.44336,12.47814 -1.2578,0 -3.0628,-2.02202 -4.16955,-4.67083 z"
       style="fill:#ffffff;fill-opacity:1;stroke:#000000;stroke-width:5.38752747;stroke-linecap:round;stroke-linejoin:round;stroke-miterlimit:4;stroke-dasharray:none;stroke-dashoffset:0;stroke-opacity:0" /><path
       inkscape:connector-curvature="0"
       id="path4218"
       d="m -493.73717,-36.245402 0,-191.257228 191.25723,0 191.25723,0 0,191.257228 0,191.257232 -191.25723,0 -191.25723,0 0,-191.257232 z m 79.90604,101.959767 c 16.16888,-11.072676 29.85385,-19.602843 30.41104,-18.955895 0.55718,0.646934 4.47128,6.453235 8.69799,12.9029 8.47548,12.932962 13.49752,17.349616 19.93584,17.532671 6.76101,0.192227 9.30802,-4.243971 16.45463,-28.659532 11.78144,-40.2499489 19.10134,-51.0866912 30.02171,-44.4456207 5.8841,3.5783285 11.12616,15.1687587 18.64156,41.2172797 8.26049,28.630978 9.36033,30.797922 15.90518,31.336783 6.8206,0.561569 12.32366,-3.681904 20.17243,-15.555139 23.94435,-36.221951 41.96004,-98.587215 36.09312,-124.944293 -0.85108,-3.823448 -0.35698,-4.42215 9.1919,-11.137986 13.97317,-9.827497 16.2701,-12.212191 16.2701,-16.891798 0,-2.883421 3.53595,-8.941415 12.75141,-21.846445 7.01326,-9.82116 13.52881,-17.82522 14.47898,-17.7868 8.94114,0.36154 17.44402,-6.95866 25.01468,-21.53534 15.44212,-29.73254 12.21692,-59.72954 -6.05346,-56.302 -6.82444,1.28028 -15.60626,10.97695 -21.83676,24.11163 -6.74426,14.21772 -8.48349,21.92695 -8.01365,35.52084 l 0.38428,11.11832 -12.74011,18.13021 c -9.10334,12.95481 -13.51927,18.14492 -15.46965,18.18173 -1.50125,0.0283 -7.49734,3.370116 -13.32462,7.426197 l -10.59506,7.374688 -7.84219,-7.26049 c -8.75075,-8.101635 -18.51643,-12.479185 -30.64233,-13.735685 -9.92538,-1.02847 -16.73687,0.85246 -33.51677,9.255348 l -13.79694,6.909118 -14.48758,-6.911018 c -7.96815,-3.801058 -17.21499,-7.615208 -20.54852,-8.475878 -14.61086,-3.77233 -36.25751,3.53799 -47.19318,15.937649 -12.51225,14.187313 -17.17573,30.507252 -14.84352,51.945248 2.05139,18.85671 8.38373,42.5418298 16.85661,63.049413 0.72567,1.756401 -5.74553,6.790184 -30.81029,23.966484 -17.4509,11.958708 -32.34204,22.888749 -33.09142,24.288981 -4.21849,7.882316 2.87511,17.280211 11.38263,15.080174 1.50919,-0.390272 15.97308,-9.769055 32.14196,-20.841744 z"
       style="fill:#ffffff;fill-opacity:1;stroke:#000000;stroke-width:5.38752747;stroke-linecap:round;stroke-linejoin:round;stroke-miterlimit:4;stroke-dasharray:none;stroke-dashoffset:0;stroke-opacity:0" /><path
       inkscape:connector-curvature="0"
       id="path4220"
       d="m -360.98058,60.51928 c -6.33141,-7.333409 -22.04096,-39.178936 -28.19501,-57.1553482 -10.39099,-30.3527938 -13.17857,-57.3514968 -7.49099,-72.5529158 3.72928,-9.967394 13.92674,-21.010767 23.11153,-25.028701 14.6473,-6.407535 28.91097,-3.599537 48.17812,9.484535 14.09543,9.572027 22.09316,12.582953 35.01893,13.183669 11.13796,0.517629 18.85634,-0.980964 18.85634,-3.661128 0,-0.725553 -2.27286,-1.691336 -5.0508,-2.146186 -13.29053,-2.176137 -25.29442,-4.857662 -26.31527,-5.878514 -1.29073,-1.290726 3.92445,-4.534834 16.55037,-10.295182 21.2588,-9.698939 43.25676,-0.991198 54.54872,21.592719 3.82844,7.656899 4.03223,8.894709 3.88034,23.570433 -0.13051,12.605588 -0.93359,18.456908 -4.31405,31.430637 -7.57562,29.074213 -23.91168,65.171772 -35.33234,78.073379 l -4.78777,5.408606 -5.76508,-20.080339 c -3.17079,-11.044189 -7.59869,-24.836725 -9.83979,-30.650087 -8.94546,-23.2043871 -26.18874,-31.06751 -39.81534,-18.1562226 -6.37512,6.040469 -12.28285,19.1921576 -19.8614,44.2151126 -3.47753,11.482168 -6.77345,21.69094 -7.32425,22.686178 -0.73014,1.319271 -2.36981,0.224593 -6.05226,-4.040645 z"
       style="fill:#ffffff;fill-opacity:1;stroke:#000000;stroke-width:5.38752747;stroke-linecap:round;stroke-linejoin:round;stroke-miterlimit:4;stroke-dasharray:none;stroke-dashoffset:0;stroke-opacity:0" /></g></svg>