<?xml version="1.0" encoding="UTF-8" standalone="no"?>
<svg
   xmlns:dc="http://purl.org/dc/elements/1.1/"
   xmlns:cc="http://creativecommons.org/ns#"
   xmlns:rdf="http://www.w3.org/1999/02/22-rdf-syntax-ns#"
   xmlns:svg="http://www.w3.org/2000/svg"
   xmlns="http://www.w3.org/2000/svg"
   xmlns:sodipodi="http://sodipodi.sourceforge.net/DTD/sodipodi-0.dtd"
   xmlns:inkscape="http://www.inkscape.org/namespaces/inkscape"
   width="453.543"
   height="453.543"
   viewBox="0 0 453.543 453.543"
   overflow="visible"
   enable-background="new 0 0 453.543 453.543"
   xml:space="preserve"
   id="svg2"
   version="1.1"
   inkscape:version="0.91 r13725"
   sodipodi:docname="transportepublico.svg"><metadata
     id="metadata13"><rdf:RDF><cc:Work
         rdf:about=""><dc:format>image/svg+xml</dc:format><dc:type
           rdf:resource="http://purl.org/dc/dcmitype/StillImage" /></cc:Work></rdf:RDF></metadata><defs
     id="defs11" /><sodipodi:namedview
     pagecolor="#ffffff"
     bordercolor="#666666"
     borderopacity="1"
     objecttolerance="10"
     gridtolerance="10"
     guidetolerance="10"
     inkscape:pageopacity="0"
     inkscape:pageshadow="2"
     inkscape:window-width="1280"
     inkscape:window-height="966"
     id="namedview9"
     showgrid="false"
     inkscape:zoom="1.28562"
     inkscape:cx="84.278609"
     inkscape:cy="297.18617"
     inkscape:window-x="0"
     inkscape:window-y="0"
     inkscape:window-maximized="1"
     inkscape:current-layer="svg2" /><g
     id="g3344"
     inkscape:export-filename="/home/mai/IHC/projeto-smartdemand/SMARTS/SMARTS/app/src/main/res/drawable/transportepublico24.png"
     inkscape:export-xdpi="8.8500004"
     inkscape:export-ydpi="8.8500004"><rect
       y="100.1477"
       x="100.08521"
       height="218.09645"
       width="237.99823"
       id="rect4243-6"
       style="fill:none;fill-opacity:1;stroke:#006df0;stroke-width:6.06127024;stroke-linecap:round;stroke-linejoin:round;stroke-miterlimit:4;stroke-dasharray:none;stroke-dashoffset:0;stroke-opacity:1" /><g
       transform="matrix(1.2028549,0,0,1.2028549,-54.844706,-53.178646)"
       id="g4233"><path
         style="fill:none;fill-opacity:1;stroke:#000000;stroke-width:3.99999976;stroke-miterlimit:4;stroke-dasharray:none;stroke-opacity:1"
         inkscape:connector-curvature="0"
         id="path5"
         d="m 285.58406,162.7802 c -1.72956,-8.64985 -7.26595,-12.10979 -15.57014,-15.57014 -8.18664,-3.41103 -27.80448,-7.49243 -42.28214,-7.60669 -14.47684,0.11467 -34.09426,4.19566 -42.28131,7.60669 -8.30419,3.45994 -13.84017,6.91988 -15.57014,15.57014 l -6.22773,47.95417 0,66.07755 10.7259,0 0,10.36215 c 0,12.63425 18.48918,12.63425 18.48918,0 l 0,-10.36215 34.13414,0 0.1081,0 35.48761,0 0,10.36215 c 0,12.63425 18.48878,12.63425 18.48878,0 l 0,-10.36215 10.72589,0 0,-66.07755 -6.22814,-47.95417 z m -84.21696,-11.07197 25.7424,0 26.9882,0 c 5.19032,0 5.19032,7.78507 0,7.78507 l -27.05108,0 -25.67952,0 c -5.19032,0 -5.19032,-7.78507 0,-7.78507 z m -17.73661,104.38926 c -4.8985,0 -8.86975,-3.97124 -8.86975,-8.86974 0,-4.8985 3.97125,-8.86934 8.86975,-8.86934 4.8985,0 8.86974,3.97084 8.86974,8.86934 0,4.8985 -3.97124,8.86974 -8.86974,8.86974 z m 43.47901,-40.30925 -47.04458,0 c -4.60586,0 -5.57011,-3.3091 -5.11799,-6.64286 l 4.84712,-34.78066 c 0.66585,-4.22567 2.09825,-7.01154 7.5808,-7.01154 l 39.67177,0 41.04292,0 c 5.48296,0 6.91495,2.78587 7.58038,7.01154 l 4.84795,34.78066 c 0.45212,3.33376 -0.51213,6.64286 -5.11798,6.64286 l -48.29039,0 z m 44.7244,40.30925 c -4.8985,0 -8.86933,-3.97124 -8.86933,-8.86974 0,-4.8985 3.97083,-8.86934 8.86933,-8.86934 4.8985,0 8.86934,3.97084 8.86934,8.86934 0,4.8985 -3.97084,8.86974 -8.86934,8.86974 z" /><g
         id="g4230"><path
           inkscape:connector-curvature="0"
           id="path4226"
           d="m 178.95906,291.91549 c -2.19646,-2.19645 -2.27367,-2.52664 -2.27367,-9.72293 l 0,-7.44926 -5.44485,0 -5.44484,0 0,-31.11098 0,-31.11098 3.14776,-24.30975 c 1.73127,-13.37037 3.47375,-25.54385 3.87218,-27.05218 1.54265,-5.84001 9.56835,-11.08862 21.97664,-14.37221 14.84704,-3.92894 29.70714,-5.46085 41.48892,-4.27704 17.16951,1.72516 32.53284,5.78624 39.67601,10.4878 6.26017,4.12039 6.7386,5.67408 10.36444,33.65796 l 3.14979,24.30975 0,31.88882 0,31.88881 -5.44484,0 -5.44485,0 0,7.8137 c 0,7.25892 -0.13556,7.94927 -1.90923,9.72293 -1.261,1.26101 -2.78679,1.90924 -4.49394,1.90924 -5.51252,0 -7.5858,-3.76964 -7.59351,-13.80657 l -0.004,-5.6393 -36.87426,0 -36.87427,0 -0.26735,7.8469 c -0.25494,7.48296 -0.36856,7.93391 -2.44976,9.72293 -3.01861,2.59483 -6.30634,2.45205 -9.15602,-0.39764 z m 9.23802,-34.59958 c 3.67688,-1.91307 5.75381,-4.79309 6.17939,-8.56876 1.28356,-11.38779 -11.65678,-17.14317 -19.20787,-8.54295 -4.42068,5.03487 -2.69035,13.98609 3.27176,16.92529 3.13521,1.5456 7.00241,1.61949 9.75672,0.18642 z m 88.34944,0.0141 c 8.47801,-3.54233 8.47418,-15.86439 -0.006,-19.96968 -12.76381,-6.17885 -22.34364,12.103 -10.21656,19.49696 2.97249,1.81235 6.61362,1.98072 10.22277,0.47272 l 2e-5,0 z m 3.7809,-40.90683 c 1.0755,-0.84599 2.1429,-2.50861 2.37199,-3.69471 0.22909,-1.18608 -0.80444,-10.90717 -2.29672,-21.6024 -2.82899,-20.27542 -3.69396,-23.24278 -7.30836,-25.07196 -1.44335,-0.73045 -12.40596,-0.96464 -45.46076,-0.97113 -41.58416,-0.008 -43.66971,0.0591 -46.00653,1.484 -1.43137,0.8728 -2.79221,2.56725 -3.27728,4.08073 -1.0638,3.31917 -5.55355,35.79869 -5.55355,40.17519 0,2.48784 0.47856,3.79857 1.90923,5.22924 l 1.90923,1.90923 50.87865,0 c 49.50785,0 50.93132,-0.0414 52.8341,-1.53816 l 0,-3e-5 z M 257.45623,160.712 c 0.97782,-0.68489 2.09213,-2.07189 2.47626,-3.08224 0.87434,-2.29966 -0.42412,-6.30812 -2.38296,-7.35646 -0.854,-0.45704 -12.84998,-0.76141 -30.00915,-0.76141 -28.27982,0 -28.60574,0.0181 -30.3867,1.69125 -2.46657,2.31723 -2.41728,6.31862 0.10897,8.84487 l 1.90924,1.90923 28.25325,0 c 24.64664,0 28.4802,-0.15896 30.03109,-1.24524 z"
           style="fill:#006df0;fill-opacity:1;stroke:#000000;stroke-width:3.11133933;stroke-linecap:round;stroke-linejoin:round;stroke-miterlimit:4;stroke-dasharray:none;stroke-dashoffset:0;stroke-opacity:1" /></g></g></g></svg>